<?xml version="1.0" standalone="no"?>
<!DOCTYPE svg PUBLIC "-//W3C//DTD SVG 20010904//EN"
 "http://www.w3.org/TR/2001/REC-SVG-20010904/DTD/svg10.dtd">
<svg version="1.0" xmlns="http://www.w3.org/2000/svg"
 width="1280.000000pt" height="934.000000pt" viewBox="0 0 1280.000000 934.000000"
 preserveAspectRatio="xMidYMid meet">

<g transform="translate(0.000000,934.000000) scale(0.100000,-0.100000)"
fill="#000000" stroke="none">
<path d="M430 5003 l0 -4258 -175 -3 -175 -2 0 -75 0 -75 176 -2 175 -3 -1
-252 -1 -253 81 0 80 0 0 255 0 255 6065 0 6065 0 0 75 0 75 -6065 0 -6065 0
0 4260 0 4260 -80 0 -80 0 0 -4257z"/>
<path d="M10635 7511 c-187 -81 -641 -277 -1010 -436 -368 -158 -674 -291
-679 -296 -6 -5 4 -9 25 -9 48 -1 918 -115 925 -122 7 -7 -1068 -2098 -1079
-2098 -4 0 -361 243 -793 541 -432 297 -789 539 -794 537 -20 -8 -1060 -1280
-1054 -1290 4 -6 3 -8 -3 -5 -13 8 -45 -26 -41 -44 2 -8 -2 -13 -8 -12 -7 1
-63 -59 -125 -135 -62 -75 -133 -161 -157 -189 -24 -29 -42 -53 -39 -53 3 0
71 79 152 175 80 96 148 175 151 175 3 0 -4 -12 -15 -26 -20 -25 -21 -39 -21
-257 l0 -231 32 30 c17 16 27 22 23 14 -4 -8 6 -2 23 14 31 29 44 55 20 40 -7
-4 -8 -3 -4 5 4 6 11 9 16 6 5 -3 242 267 527 599 285 333 521 604 525 603 4
-1 379 -361 834 -800 710 -684 829 -795 837 -780 15 26 1082 1921 1350 2397
182 322 233 405 241 394 95 -129 562 -736 564 -733 2 2 -1 133 -7 292 -6 158
-15 428 -21 598 -6 171 -15 434 -20 585 -5 151 -12 362 -16 468 -3 105 -9 192
-13 191 -3 -1 -159 -67 -346 -148z"/>
<path d="M5769 3863 l-24 -28 28 24 c15 14 27 26 27 28 0 8 -8 1 -31 -24z"/>
<path d="M5719 3803 l-24 -28 28 24 c15 14 27 26 27 28 0 8 -8 1 -31 -24z"/>
<path d="M5674 3748 l-19 -23 23 19 c12 11 22 21 22 23 0 8 -8 2 -26 -19z"/>
<path d="M6045 3687 c-39 -45 -107 -126 -153 -179 -46 -54 -81 -98 -78 -98 8
0 308 351 304 355 -2 2 -35 -33 -73 -78z"/>
<path d="M5624 3688 l-19 -23 23 19 c12 11 22 21 22 23 0 8 -8 2 -26 -19z"/>
<path d="M5579 3633 c-13 -16 -12 -17 4 -4 9 7 17 15 17 17 0 8 -8 3 -21 -13z"/>
<path d="M5774 3368 l-29 -33 33 29 c17 17 32 31 32 33 0 8 -8 1 -36 -29z"/>
<path d="M5714 3298 l-29 -33 33 29 c17 17 32 31 32 33 0 8 -8 1 -36 -29z"/>
<path d="M5659 3233 l-24 -28 28 24 c15 14 27 26 27 28 0 8 -8 1 -31 -24z"/>
<path d="M5599 3163 l-24 -28 28 24 c15 14 27 26 27 28 0 8 -8 1 -31 -24z"/>
<path d="M5539 3093 c-13 -16 -12 -17 4 -4 16 13 21 21 13 21 -2 0 -10 -8 -17
-17z"/>
<path d="M5479 3023 c-13 -16 -12 -17 4 -4 16 13 21 21 13 21 -2 0 -10 -8 -17
-17z"/>
</g>
</svg>
